<mxfile host="app.diagrams.net" modified="2023-06-29T22:44:34.376Z" agent="Mozilla/5.0 (Macintosh; Intel Mac OS X 10_15_7) AppleWebKit/537.36 (KHTML, like Gecko) Chrome/114.0.0.0 Safari/537.36" etag="2EXvAYLMUuikbCtBgvCp" version="21.5.2" type="github">
  <diagram id="C5RBs43oDa-KdzZeNtuy" name="Page-1">
    <mxGraphModel dx="1546" dy="777" grid="1" gridSize="10" guides="1" tooltips="1" connect="1" arrows="1" fold="1" page="1" pageScale="1" pageWidth="827" pageHeight="1169" math="0" shadow="0">
      <root>
        <mxCell id="WIyWlLk6GJQsqaUBKTNV-0" />
        <mxCell id="WIyWlLk6GJQsqaUBKTNV-1" parent="WIyWlLk6GJQsqaUBKTNV-0" />
        <mxCell id="RDEEQ2P19wLeuMZcptEe-1" value="&lt;br&gt;&lt;br&gt;&lt;br&gt;&lt;br&gt;User" style="shape=actor;whiteSpace=wrap;html=1;" vertex="1" parent="WIyWlLk6GJQsqaUBKTNV-1">
          <mxGeometry x="174" y="260" width="90" height="140" as="geometry" />
        </mxCell>
        <mxCell id="RDEEQ2P19wLeuMZcptEe-11" value="Blog" style="swimlane;fontStyle=0;childLayout=stackLayout;horizontal=1;startSize=26;horizontalStack=0;resizeParent=1;resizeParentMax=0;resizeLast=0;collapsible=1;marginBottom=0;align=center;fontSize=14;" vertex="1" parent="WIyWlLk6GJQsqaUBKTNV-1">
          <mxGeometry x="494" y="260" width="160" height="180" as="geometry">
            <mxRectangle x="70" y="469" width="60" height="30" as="alternateBounds" />
          </mxGeometry>
        </mxCell>
        <mxCell id="RDEEQ2P19wLeuMZcptEe-12" value="게시글 등록&lt;br&gt;" style="text;strokeColor=none;fillColor=none;spacingLeft=4;spacingRight=4;overflow=hidden;rotatable=0;points=[[0,0.5],[1,0.5]];portConstraint=eastwest;fontSize=12;whiteSpace=wrap;html=1;align=center;" vertex="1" parent="RDEEQ2P19wLeuMZcptEe-11">
          <mxGeometry y="26" width="160" height="30" as="geometry" />
        </mxCell>
        <mxCell id="RDEEQ2P19wLeuMZcptEe-13" value="&lt;div style=&quot;&quot;&gt;&lt;span style=&quot;background-color: initial;&quot;&gt;게시글 수정&lt;/span&gt;&lt;/div&gt;" style="text;strokeColor=none;fillColor=none;spacingLeft=4;spacingRight=4;overflow=hidden;rotatable=0;points=[[0,0.5],[1,0.5]];portConstraint=eastwest;fontSize=12;whiteSpace=wrap;html=1;align=center;" vertex="1" parent="RDEEQ2P19wLeuMZcptEe-11">
          <mxGeometry y="56" width="160" height="30" as="geometry" />
        </mxCell>
        <mxCell id="RDEEQ2P19wLeuMZcptEe-14" value="게시글 삭제" style="text;strokeColor=none;fillColor=none;spacingLeft=4;spacingRight=4;overflow=hidden;rotatable=0;points=[[0,0.5],[1,0.5]];portConstraint=eastwest;fontSize=12;whiteSpace=wrap;html=1;align=center;" vertex="1" parent="RDEEQ2P19wLeuMZcptEe-11">
          <mxGeometry y="86" width="160" height="94" as="geometry" />
        </mxCell>
        <mxCell id="RDEEQ2P19wLeuMZcptEe-17" value="게시글 조회" style="text;strokeColor=none;fillColor=none;spacingLeft=4;spacingRight=4;overflow=hidden;rotatable=0;points=[[0,0.5],[1,0.5]];portConstraint=eastwest;fontSize=12;whiteSpace=wrap;html=1;align=center;" vertex="1" parent="WIyWlLk6GJQsqaUBKTNV-1">
          <mxGeometry x="494" y="376" width="160" height="30" as="geometry" />
        </mxCell>
        <mxCell id="RDEEQ2P19wLeuMZcptEe-18" value="게시글 단 건 조회" style="text;strokeColor=none;fillColor=none;spacingLeft=4;spacingRight=4;overflow=hidden;rotatable=0;points=[[0,0.5],[1,0.5]];portConstraint=eastwest;fontSize=12;whiteSpace=wrap;html=1;align=center;" vertex="1" parent="WIyWlLk6GJQsqaUBKTNV-1">
          <mxGeometry x="494" y="406" width="160" height="30" as="geometry" />
        </mxCell>
        <mxCell id="RDEEQ2P19wLeuMZcptEe-21" value="회원가입" style="ellipse;whiteSpace=wrap;html=1;align=center;" vertex="1" parent="WIyWlLk6GJQsqaUBKTNV-1">
          <mxGeometry x="334" y="220" width="80" height="40" as="geometry" />
        </mxCell>
        <mxCell id="RDEEQ2P19wLeuMZcptEe-22" value="" style="edgeStyle=elbowEdgeStyle;elbow=horizontal;endArrow=classic;html=1;curved=0;rounded=0;endSize=8;startSize=8;" edge="1" parent="WIyWlLk6GJQsqaUBKTNV-1">
          <mxGeometry width="50" height="50" relative="1" as="geometry">
            <mxPoint x="254" y="330" as="sourcePoint" />
            <mxPoint x="334" y="240" as="targetPoint" />
          </mxGeometry>
        </mxCell>
        <mxCell id="RDEEQ2P19wLeuMZcptEe-25" value="" style="endArrow=classic;html=1;rounded=0;exitX=0.989;exitY=0.7;exitDx=0;exitDy=0;exitPerimeter=0;entryX=0;entryY=0.5;entryDx=0;entryDy=0;" edge="1" parent="WIyWlLk6GJQsqaUBKTNV-1" source="RDEEQ2P19wLeuMZcptEe-1" target="RDEEQ2P19wLeuMZcptEe-18">
          <mxGeometry width="50" height="50" relative="1" as="geometry">
            <mxPoint x="424" y="440" as="sourcePoint" />
            <mxPoint x="474" y="390" as="targetPoint" />
          </mxGeometry>
        </mxCell>
        <mxCell id="RDEEQ2P19wLeuMZcptEe-26" value="" style="endArrow=classic;html=1;rounded=0;exitX=0.989;exitY=0.7;exitDx=0;exitDy=0;exitPerimeter=0;entryX=0;entryY=0.5;entryDx=0;entryDy=0;" edge="1" parent="WIyWlLk6GJQsqaUBKTNV-1" target="RDEEQ2P19wLeuMZcptEe-14">
          <mxGeometry width="50" height="50" relative="1" as="geometry">
            <mxPoint x="260.5" y="350" as="sourcePoint" />
            <mxPoint x="487.5" y="351" as="targetPoint" />
          </mxGeometry>
        </mxCell>
        <mxCell id="RDEEQ2P19wLeuMZcptEe-27" value="로그인" style="ellipse;whiteSpace=wrap;html=1;align=center;" vertex="1" parent="WIyWlLk6GJQsqaUBKTNV-1">
          <mxGeometry x="334" y="300" width="80" height="40" as="geometry" />
        </mxCell>
        <mxCell id="RDEEQ2P19wLeuMZcptEe-28" value="" style="endArrow=classic;html=1;rounded=0;exitX=0.5;exitY=1;exitDx=0;exitDy=0;entryX=0.5;entryY=0;entryDx=0;entryDy=0;" edge="1" parent="WIyWlLk6GJQsqaUBKTNV-1" source="RDEEQ2P19wLeuMZcptEe-21" target="RDEEQ2P19wLeuMZcptEe-27">
          <mxGeometry width="50" height="50" relative="1" as="geometry">
            <mxPoint x="424" y="440" as="sourcePoint" />
            <mxPoint x="474" y="390" as="targetPoint" />
          </mxGeometry>
        </mxCell>
        <mxCell id="RDEEQ2P19wLeuMZcptEe-29" value="" style="endArrow=classic;html=1;rounded=0;exitX=1;exitY=0.5;exitDx=0;exitDy=0;entryX=0;entryY=0.5;entryDx=0;entryDy=0;" edge="1" parent="WIyWlLk6GJQsqaUBKTNV-1" source="RDEEQ2P19wLeuMZcptEe-27" target="RDEEQ2P19wLeuMZcptEe-12">
          <mxGeometry width="50" height="50" relative="1" as="geometry">
            <mxPoint x="384" y="270" as="sourcePoint" />
            <mxPoint x="384" y="310" as="targetPoint" />
          </mxGeometry>
        </mxCell>
        <mxCell id="RDEEQ2P19wLeuMZcptEe-30" value="" style="endArrow=classic;html=1;rounded=0;exitX=1;exitY=0.5;exitDx=0;exitDy=0;entryX=0;entryY=0.5;entryDx=0;entryDy=0;" edge="1" parent="WIyWlLk6GJQsqaUBKTNV-1" source="RDEEQ2P19wLeuMZcptEe-27" target="RDEEQ2P19wLeuMZcptEe-13">
          <mxGeometry width="50" height="50" relative="1" as="geometry">
            <mxPoint x="424" y="330" as="sourcePoint" />
            <mxPoint x="504" y="311" as="targetPoint" />
          </mxGeometry>
        </mxCell>
        <mxCell id="RDEEQ2P19wLeuMZcptEe-31" value="" style="endArrow=classic;html=1;rounded=0;exitX=1;exitY=0.5;exitDx=0;exitDy=0;entryX=0;entryY=0.096;entryDx=0;entryDy=0;entryPerimeter=0;" edge="1" parent="WIyWlLk6GJQsqaUBKTNV-1" source="RDEEQ2P19wLeuMZcptEe-27" target="RDEEQ2P19wLeuMZcptEe-14">
          <mxGeometry width="50" height="50" relative="1" as="geometry">
            <mxPoint x="414" y="340" as="sourcePoint" />
            <mxPoint x="494" y="351" as="targetPoint" />
          </mxGeometry>
        </mxCell>
      </root>
    </mxGraphModel>
  </diagram>
</mxfile>
